name Run_400 02_newCOP3_v24.mot
datacolumns 19
datarows 138
range 1.422 1.559
DataType=double
version=3
OpenSimVersion=4.3-2021-08-27-4bc7ad9
endheader
time	R_ground_force_vx	R_ground_force_vy	R_ground_force_vz	R_ground_force_px	R_ground_force_py	R_ground_force_pz	L_ground_force_vx	L_ground_force_vy	L_ground_force_vz	L_ground_force_px	L_ground_force_py	L_ground_force_pz	R_ground_torque_x	R_ground_torque_y	R_ground_torque_z	L_ground_torque_x	L_ground_torque_y	L_ground_torque_z
1.422	0	0	0	0	0	0	0	0	0	0	0	0	0	0	0	0	0	0
1.423	0	0	0	0	0	0	0	0	0	0	0	0	0	0	0	0	0	0
1.424	0	0	0	0	0	0	0	0	0	0	0	0	0	0	0	0	0	0
1.425	0	0	0	0	0	0	0	0	0	0	0	0	0	0	0	0	0	0
1.426	0	0	0	0	0	0	0	0	0	0	0	0	0	0	0	0	0	0
1.427	0	0	0	0	0	0	0	0	0	0	0	0	0	0	0	0	0	0
1.428	0	0	0	0	0	0	0	0	0	0	0	0	0	0	0	0	0	0
1.429	0	0	0	0	0	0	0	0	0	0	0	0	0	0	0	0	0	0
1.43	0	0	0	0	0	0	0	0	0	0	0	0	0	0	0	0	0	0
1.431	0	0	0	0	0	0	0	0	0	0	0	0	0	0	0	0	0	0
1.432	0	0	0	0	0	0	0	0	0	0	0	0	0	0	0	0	0	0
1.433	0	0	0	0	0	0	0	0	0	0	0	0	0	0	0	0	0	0
1.434	0	0	0	0	0	0	0	0	0	0	0	0	0	0	0	0	0	0
1.435	0	0	0	0	0	0	0	0	0	0	0	0	0	0	0	0	0	0
1.436	0	0	0	0	0	0	0	0	0	0	0	0	0	0	0	0	0	0
1.437	0	0	0	0	0	0	0	0	0	0	0	0	0	0	0	0	0	0
1.438	0	0	0	0	0	0	0	0	0	0	0	0	0	0	0	0	0	0
1.439	0	0	0	0	0	0	0	0	0	0	0	0	0	0	0	0	0	0
1.44	0	0	0	0	0	0	0	0	0	0	0	0	0	0	0	0	0	0
1.441	0	0	0	0	0	0	0	0	0	0	0	0	0	0	0	0	0	0
1.442	0	0	0	0	0	0	0	0	0	0	0	0	0	0	0	0	0	0
1.443	0	0	0	0	0	0	0	0	0	0	0	0	0	0	0	0	0	0
1.444	0	0	0	0	0	0	0	0	0	0	0	0	0	0	0	0	0	0
1.445	0	0	0	0	0	0	0	0	0	0	0	0	0	0	0	0	0	0
1.446	0	0	0	0	0	0	0	0	0	0	0	0	0	0	0	0	0	0
1.447	0	0	0	0	0	0	0	0	0	0	0	0	0	0	0	0	0	0
1.448	0	0	0	0	0	0	0	0	0	0	0	0	0	0	0	0	0	0
1.449	0	0	0	0	0	0	0	0	0	0	0	0	0	0	0	0	0	0
1.45	0	0	0	0	0	0	0	0	0	0	0	0	0	0	0	0	0	0
1.451	0	0	0	0	0	0	0	0	0	0	0	0	0	0	0	0	0	0
1.452	0	0	0	0	0	0	0	0	0	0	0	0	0	0	0	0	0	0
1.453	0	0	0	0	0	0	0	0	0	0	0	0	0	0	0	0	0	0
1.454	0	0	0	0	0	0	0	0	0	0	0	0	0	0	0	0	0	0
1.455	0	0	0	0	0	0	0	0	0	0	0	0	0	0	0	0	0	0
1.456	0	0	0	0	0	0	0	0	0	0	0	0	0	0	0	0	0	0
1.457	0	0	0	0	0	0	0	0	0	0	0	0	0	0	0	0	0	0
1.458	0	0	0	0	0	0	0	0	0	0	0	0	0	0	0	0	0	0
1.459	0	0	0	0	0	0	0	0	0	0	0	0	0	0	0	0	0	0
1.46	0	0	0	0	0	0	0	0	0	0	0	0	0	0	0	0	0	0
1.461	0	0	0	0	0	0	0	0	0	0	0	0	0	0	0	0	0	0
1.462	0	0	0	0	0	0	0	0	0	0	0	0	0	0	0	0	0	0
1.463	0	0	0	0	0	0	0	0	0	0	0	0	0	0	0	0	0	0
1.464	0	0	0	0	0	0	0	0	0	0	0	0	0	0	0	0	0	0
1.465	0	0	0	0	0	0	0	0	0	0	0	0	0	0	0	0	0	0
1.466	0	0	0	0	0	0	0	0	0	0	0	0	0	0	0	0	0	0
1.467	0	0	0	0	0	0	0	0	0	0	0	0	0	0	0	0	0	0
1.468	0	0	0	0	0	0	0	0	0	0	0	0	0	0	0	0	0	0
1.469	0	0	0	0	0	0	0	0	0	0	0	0	0	0	0	0	0	0
1.47	0	0	0	0	0	0	0	0	0	0	0	0	0	0	0	0	0	0
1.471	0	0	0	0	0	0	0	0	0	0	0	0	0	0	0	0	0	0
1.472	0	0	0	0	0	0	0	0	0	0	0	0	0	0	0	0	0	0
1.473	0	0	0	0	0	0	0	0	0	0	0	0	0	0	0	0	0	0
1.474	0	0	0	0	0	0	0	0	0	0	0	0	0	0	0	0	0	0
1.475	0	0	0	0	0	0	0	0	0	0	0	0	0	0	0	0	0	0
1.476	0	0	0	0	0	0	0	0	0	0	0	0	0	0	0	0	0	0
1.477	0	0	0	0	0	0	0	0	0	0	0	0	0	0	0	0	0	0
1.478	0	0	0	0	0	0	-17.660688	55.989956	-4.559576	1.051639	0	-0.221685	0	0	0	-0	1.098881	-0
1.479	0	0	0	0	0	0	-19.072973	62.671577	-5.134007	0.98919	0	-0.285845	0	0	0	-0	0.9861760000000001	-0
1.48	0	0	0	0	0	0	-20.459135	70.03478200000001	-5.727864	0.970728	0	-0.303298	0	0	0	-0	0.866462	-0
1.481	0	0	0	0	0	0	-21.802109	78.126732	-6.338918	0.961297	0	-0.311238	0	0	0	-0	0.741155	-0
1.482	0	0	0	0	0	0	-23.084347	86.994179	-6.964555	0.955249	0	-0.315669	0	0	0	-0	0.611664	-0
1.483	0	0	0	0	0	0	-24.288168	96.68272399999999	-7.60169	0.950848	0	-0.318432	0	0	0	-0	0.479369	-0
1.484	0	0	0	0	0	0	-25.396151	107.23597	-8.246696	0.94738	0	-0.320279	0	0	0	-0	0.345599	-0
1.485	0	0	0	0	0	0	-26.391562	118.694626	-8.895332	0.9444979999999999	0	-0.321572	0	0	0	-0	0.211617	-0
1.486	0	0	0	0	0	0	-27.258833	131.095596	-9.542705	0.942012	0	-0.32251	0	0	0	-0	0.078607	-0
1.487	0	0	0	0	0	0	-27.984066	144.471039	-10.183242	0.939809	0	-0.323207	0	0	0	0	-0.052345	0
1.488	0	0	0	0	0	0	-28.555553	158.847382	-10.810707	0.937817	0	-0.323735	0	0	0	0	-0.180255	0
1.489	0	0	0	0	0	0	-28.964321	174.244522	-11.418249	0.935988	0	-0.324143	0	0	0	0	-0.30425	0
1.49	0	0	0	0	0	0	-29.204662	190.674957	-11.998487	0.934289	0	-0.324462	0	0	0	0	-0.423579	0
1.491	0	0	0	0	0	0	-29.274639	208.143127	-12.543632	0.932696	0	-0.324714	0	0	0	0	-0.537608	0
1.492	0	0	0	0	0	0	-29.176552	226.64476	-13.045653	0.93119	0	-0.324916	0	0	0	0	-0.64583	0
1.493	0	0	0	0	0	0	-28.917347	246.166519	-13.496469	0.929759	0	-0.325081	0	0	0	0	-0.747858	0
1.494	0	0	0	0	0	0	-28.50893	266.685608	-13.888144	0.928393	0	-0.325216	0	0	0	0	-0.843425	0
1.495	0	0	0	0	0	0	-27.968384	288.169708	-14.213119	0.927082	0	-0.325329	0	0	0	0	-0.932384	0
1.496	0	0	0	0	0	0	-27.31806	310.576904	-14.464417	0.925822	0	-0.325425	0	0	0	0	-1.014695	0
1.497	0	0	0	0	0	0	-26.585529	333.855835	-14.635839	0.924606	0	-0.325507	0	0	0	0	-1.090425	0
1.498	0	0	0	0	0	0	-25.803389	357.946136	-14.722129	0.923431	0	-0.32558	0	0	0	0	-1.159738	0
1.499	0	0	0	0	0	0	-25.008905	382.778534	-14.719089	0.922293	0	-0.325646	0	0	0	0	-1.222886	0
1.5	0	0	0	0	0	0	-24.243504	408.275696	-14.623653	0.92119	0	-0.325707	0	0	0	0	-1.280202	0
1.501	0	0	0	0	0	0	-23.552095	434.3526	-14.43391	0.920119	0	-0.325765	0	0	0	0	-1.332089	0
1.502	0	0	0	0	0	0	-22.982273	460.91748	-14.149058	0.919077	0	-0.325821	0	0	0	0	-1.37901	0
1.503	0	0	0	0	0	0	-22.583372	487.872467	-13.76933	0.918063	0	-0.325875	0	0	0	0	-1.421479	0
1.504	0	0	0	0	0	0	-22.405434	515.114685	-13.295877	0.917076	0	-0.32593	0	0	0	0	-1.460052	0
1.505	0	0	0	0	0	0	-22.498106	542.537292	-12.730624	0.916113	0	-0.325986	0	0	0	0	-1.495312	0
1.506	0	0	0	0	0	0	-22.909487	570.0306399999999	-12.076132	0.915174	0	-0.326043	0	0	0	0	-1.527866	0
1.507	0	0	0	0	0	0	-23.684999	597.483459	-11.335454	0.914255	0	-0.326102	0	0	0	0	-1.55833	0
1.508	0	0	0	0	0	0	-24.866278	624.784668	-10.512035	0.913357	0	-0.326163	0	0	0	0	-1.587326	0
1.509	0	0	0	0	0	0	-26.490154	651.824341	-9.609636	0.912476	0	-0.326227	0	0	0	0	-1.615468	0
1.51	0	0	0	0	0	0	-28.587738	678.495667	-8.632317	0.911612	0	-0.326293	0	0	0	0	-1.643355	0
1.511	0	0	0	0	0	0	-31.183653	704.696655	-7.584458	0.910761	0	-0.326363	0	0	0	0	-1.671568	0
1.512	0	0	0	0	0	0	-34.295429	730.331238	-6.470852	0.909922	0	-0.326437	0	0	0	0	-1.700658	0
1.513	0	0	0	0	0	0	-37.933079	755.311401	-5.296819	0.909093	0	-0.326514	0	0	0	0	-1.731145	0
1.514	0	0	0	0	0	0	-42.09885	779.5582889999999	-4.068365	0.9082710000000001	0	-0.326594	0	0	0	0	-1.763508	0
1.515	0	0	0	0	0	0	-46.787174	803.003723	-2.792349	0.907453	0	-0.326678	0	0	0	0	-1.798187	0
1.516	0	0	0	0	0	0	-51.984798	825.591125	-1.47665	0.906636	0	-0.326766	0	0	0	0	-1.835571	0
1.517	0	0	0	0	0	0	-57.67107	847.276672	-0.1303	0.905817	0	-0.326857	0	0	0	0	-1.876002	0
1.518	0	0	0	0	0	0	-63.818356	868.029724	1.236417	0.904994	0	-0.326952	0	0	0	0	-1.91977	0
1.519	0	0	0	0	0	0	-70.392616	887.833557	2.61194	0.904162	0	-0.32705	0	0	0	0	-1.967112	0
1.52	0	0	0	0	0	0	-77.354034	906.685059	3.983486	0.903319	0	-0.327151	0	0	0	0	-2.018209	0
1.521	0	0	0	0	0	0	-84.657768	924.595093	5.337186	0.902459	0	-0.327255	0	0	0	0	-2.07319	0
1.522	0	0	0	0	0	0	-92.254684	941.587585	6.658328	0.90158	0	-0.327362	0	0	0	0	-2.132128	0
1.523	0	0	0	0	0	0	-100.092178	957.699463	7.93168	0.900678	0	-0.327472	0	0	0	0	-2.195044	0
1.524	0	0	0	0	0	0	-108.114952	972.9793089999999	9.141907	0.899749	0	-0.327584	0	0	0	0	-2.261905	0
1.525	0	0	0	0	0	0	-116.265839	987.48645	10.274055	0.898787	0	-0.327698	0	0	0	0	-2.33263	0
1.526	0	0	0	0	0	0	-124.486534	1001.289795	11.314086	0.897791	0	-0.327814	0	0	0	0	-2.407089	0
1.527	0	0	0	0	0	0	-132.718369	1014.465942	12.249442	0.896755	0	-0.327931	0	0	0	0	-2.485105	0
1.528	0	0	0	0	0	0	-140.902954	1027.098022	13.069607	0.895676	0	-0.328049	0	0	0	0	-2.566462	0
1.529	0	0	0	0	0	0	-148.982925	1039.27356	13.766638	0.89455	0	-0.328168	0	0	0	0	-2.650902	0
1.53	0	0	0	0	0	0	-156.902481	1051.083008	14.335647	0.893373	0	-0.328287	0	0	0	0	-2.738131	0
1.531	0	0	0	0	0	0	-164.608002	1062.617432	14.77518	0.892142	0	-0.328405	0	0	0	0	-2.827826	0
1.532	0	0	0	0	0	0	-172.048553	1073.967041	15.087502	0.890855	0	-0.328523	0	0	0	0	-2.919632	0
1.533	0	0	0	0	0	0	-179.176453	1085.219238	15.278739	0.889507	0	-0.328639	0	0	0	0	-3.01317	0
1.534	0	0	0	0	0	0	-185.947693	1096.456909	15.358877	0.888097	0	-0.328754	0	0	0	0	-3.108041	0
1.535	0	0	0	0	0	0	-192.322388	1107.756958	15.341613	0.886624	0	-0.328867	0	0	0	0	-3.203829	0
1.536	0	0	0	0	0	0	-198.265213	1119.189209	15.244049	0.885084	0	-0.328977	0	0	0	0	-3.300104	0
1.537	0	0	0	0	0	0	-203.745789	1130.814819	15.086246	0.883477	0	-0.329084	0	0	0	0	-3.396428	0
1.538	0	0	0	0	0	0	-208.739014	1142.686157	14.890656	0.881803	0	-0.329188	0	0	0	0	-3.492356	0
1.539	0	0	0	0	0	0	-213.225372	1154.845825	14.681435	0.88006	0	-0.329288	0	0	0	0	-3.587441	0
1.54	0	0	0	0	0	0	-217.191132	1167.326416	14.483704	0.87825	0	-0.329385	0	0	0	0	-3.681239	0
1.541	0	0	0	0	0	0	-220.628601	1180.150635	14.32275	0.876373	0	-0.329478	0	0	0	0	-3.77331	0
1.542	0	0	0	0	0	0	-223.536041	1193.331177	14.223223	0.874429	0	-0.329566	0	0	0	0	-3.863221	0
1.543	0	0	0	0	0	0	-225.91777	1206.871216	14.208363	0.872421	0	-0.32965	0	0	0	0	-3.950551	0
1.544	0	0	0	0	0	0	-227.783829	1220.764771	14.299275	0.870349	0	-0.329729	0	0	0	0	-4.034891	0
1.545	0	0	0	0	0	0	-229.14975	1234.997314	14.51431	0.868217	0	-0.329804	0	0	0	0	-4.115849	0
1.546	0	0	0	0	0	0	-230.036072	1249.546143	14.868526	0.866027	0	-0.329875	0	0	0	0	-4.193053	0
1.547	0	0	0	0	0	0	-230.467728	1264.381592	15.373311	0.863782	0	-0.329942	0	0	0	0	-4.266148	0
1.548	0	0	0	0	0	0	-230.473312	1279.466919	16.036108	0.861484	0	-0.330004	0	0	0	0	-4.334804	0
1.549	0	0	0	0	0	0	-230.084259	1294.759644	16.860302	0.859136	0	-0.330063	0	0	0	0	-4.398712	0
1.55	0	0	0	0	0	0	-229.334015	1310.212158	17.845242	0.856742	0	-0.330119	0	0	0	0	-4.457592	0
1.551	0	0	0	0	0	0	-228.257004	1325.772339	18.986361	0.854305	0	-0.330171	0	0	0	0	-4.511189	0
1.552	0	0	0	0	0	0	-226.887787	1341.384399	20.275442	0.8518289999999999	0	-0.330221	0	0	0	0	-4.559276	0
1.553	0	0	0	0	0	0	-225.260132	1356.989868	21.700956	0.849315	0	-0.330268	0	0	0	0	-4.601653	0
1.554	0	0	0	0	0	0	-223.40625	1372.528564	23.248466	0.846769	0	-0.330314	0	0	0	0	-4.63815	0
1.555	0	0	0	0	0	0	-221.356049	1387.939087	24.901104	0.844191	0	-0.330358	0	0	0	0	-4.668629	0
1.556	0	0	0	0	0	0	-219.136627	1403.160034	26.640053	0.8415859999999999	0	-0.330401	0	0	0	0	-4.692978	0
1.557	0	0	0	0	0	0	-216.77182	1418.131104	28.445076	0.838956	0	-0.330443	0	0	0	0	-4.711119	0
1.558	0	0	0	0	0	0	-214.282013	1432.793335	30.29501	0.836304	0	-0.330485	0	0	0	0	-4.723001	0
1.559	0	0	0	0	0	0	-211.68399	1447.090576	32.168266	0.833631	0	-0.330528	0	0	0	0	-4.728605	0
